<mxfile host="app.diagrams.net" modified="2022-08-16T17:05:35.341Z" agent="5.0 (X11; Linux x86_64) AppleWebKit/537.36 (KHTML, like Gecko) Chrome/104.0.5112.79 Safari/537.36" etag="-urM7LAKSrLGJlDBxQ7b" version="20.2.4" type="github">
  <diagram id="gp4jNo9_-lfnktJZI2Yr" name="PÃ¡gina-1">
    <mxGraphModel dx="1358" dy="798" grid="1" gridSize="10" guides="1" tooltips="1" connect="1" arrows="1" fold="1" page="1" pageScale="1" pageWidth="827" pageHeight="1169" math="0" shadow="0">
      <root>
        <mxCell id="0" />
        <mxCell id="1" parent="0" />
        <mxCell id="kd4viTobSan8hMm_aPQr-1" value="" style="rounded=1;whiteSpace=wrap;html=1;" vertex="1" parent="1">
          <mxGeometry x="350" y="380" width="120" height="60" as="geometry" />
        </mxCell>
      </root>
    </mxGraphModel>
  </diagram>
</mxfile>
